<svg width="26" height="26" viewBox="0 0 26 26" fill="none" xmlns="http://www.w3.org/2000/svg">
<path d="M13.001 25.5C9.68671 25.4965 6.50858 24.1785 4.16504 21.835C1.89468 19.5646 0.586573 16.5114 0.503908 13.3096L0.500002 12.999C0.500195 10.5272 1.23323 8.11095 2.60645 6.05567C3.97996 4.00005 5.93272 2.39727 8.2168 1.45117C10.5007 0.505237 13.0139 0.257986 15.4385 0.740236C17.8632 1.22255 20.0907 2.41298 21.8389 4.16113C23.587 5.90929 24.7775 8.13676 25.2598 10.5615C25.742 12.9861 25.4948 15.4993 24.5488 17.7832C23.6027 20.0673 22 22.02 19.9443 23.3936C17.8891 24.7668 15.4728 25.4998 13.001 25.5ZM8.59961 23.625C10.7007 24.4952 13.0127 24.7229 15.2432 24.2793C17.4739 23.8356 19.5235 22.7401 21.1318 21.1318C22.7401 19.5235 23.8356 17.4739 24.2793 15.2432C24.7229 13.0127 24.4952 10.7007 23.625 8.59961C22.7546 6.49826 21.2798 4.70211 19.3887 3.43848C17.4975 2.17488 15.2744 1.5 13 1.5H12.999C9.9504 1.50357 7.02779 2.71636 4.87207 4.87207C2.85093 6.89321 1.65856 9.58846 1.51465 12.4297L1.5 12.999V13C1.5 15.2744 2.17488 17.4975 3.43848 19.3887C4.70211 21.2798 6.49826 22.7546 8.59961 23.625ZM14 17.501C13.8672 17.501 13.7404 17.4474 13.6465 17.3535C13.5526 17.2596 13.499 17.1328 13.499 17C13.499 16.8672 13.5526 16.7404 13.6465 16.6465L15.9395 14.3535L16.7939 13.5L8 13.5C7.86739 13.5 7.74025 13.4473 7.64649 13.3535C7.55272 13.2597 7.5 13.1326 7.5 13C7.5 12.8674 7.55272 12.7403 7.64649 12.6465C7.74025 12.5527 7.86739 12.5 8 12.5L16.7939 12.5L15.9395 11.6465L13.6465 9.35352C13.6 9.30703 13.5623 9.25213 13.5371 9.19141C13.512 9.13076 13.499 9.06563 13.499 9C13.499 8.93437 13.512 8.86925 13.5371 8.80859C13.5623 8.74787 13.6 8.69297 13.6465 8.64649C13.693 8.60001 13.7479 8.56227 13.8086 8.53711C13.8693 8.51203 13.9344 8.49902 14 8.49902C14.0656 8.49902 14.1308 8.51203 14.1914 8.53711C14.2521 8.56227 14.307 8.60001 14.3535 8.64649L18.3535 12.6465H18.3545C18.4008 12.6929 18.4378 12.748 18.4629 12.8086C18.488 12.8693 18.501 12.9343 18.501 13C18.501 13.0657 18.488 13.1307 18.4629 13.1914C18.4378 13.252 18.4008 13.3071 18.3545 13.3535H18.3535L14.3535 17.3535C14.2596 17.4474 14.1328 17.501 14 17.501Z" fill="#BF9049" stroke="#BF9049"/>
</svg>
