<svg width="57" height="62" viewBox="0 0 57 62" fill="none" xmlns="http://www.w3.org/2000/svg">
<path opacity="0.4" d="M28.5 0C44.2149 0 56.9999 13.8804 57 30.9414C57 48.0025 44.2149 61.8828 28.5 61.8828C12.7851 61.8828 0 48.0025 0 30.9414C7.81406e-05 13.8804 12.7851 0 28.5 0ZM28.5 6.18848C15.9287 6.18848 5.70027 17.2932 5.7002 30.9414C5.7002 44.5897 15.9287 55.6943 28.5 55.6943C41.0713 55.6943 51.2998 44.5897 51.2998 30.9414C51.2997 17.2932 41.0713 6.18848 28.5 6.18848ZM42.75 37.1299H14.25L28.5 18.5654L42.75 37.1299Z" fill="#BF9049"/>
</svg>
