<svg width="20" height="21" viewBox="0 0 20 21" fill="none" xmlns="http://www.w3.org/2000/svg">
<path d="M17 3.41005C16.0831 2.48416 14.991 1.75002 13.7875 1.25042C12.584 0.750812 11.2931 0.495737 9.99 0.500054C4.53 0.500054 0.0800002 4.95005 0.0800002 10.4101C0.0800002 12.1601 0.54 13.8601 1.4 15.3601L0 20.5001L5.25 19.1201C6.7 19.9101 8.33 20.3301 9.99 20.3301C15.45 20.3301 19.9 15.8801 19.9 10.4201C19.9 7.77005 18.87 5.28005 17 3.41005ZM9.99 18.6501C8.51 18.6501 7.06 18.2501 5.79 17.5001L5.49 17.3201L2.37 18.1401L3.2 15.1001L3 14.7901C2.17755 13.4771 1.74092 11.9593 1.74 10.4101C1.74 5.87005 5.44 2.17005 9.98 2.17005C12.18 2.17005 14.25 3.03005 15.8 4.59005C16.5676 5.35392 17.1759 6.2626 17.5896 7.26338C18.0033 8.26417 18.2142 9.33714 18.21 10.4201C18.23 14.9601 14.53 18.6501 9.99 18.6501ZM14.51 12.4901C14.26 12.3701 13.04 11.7701 12.82 11.6801C12.59 11.6001 12.43 11.5601 12.26 11.8001C12.09 12.0501 11.62 12.6101 11.48 12.7701C11.34 12.9401 11.19 12.9601 10.94 12.8301C10.69 12.7101 9.89 12.4401 8.95 11.6001C8.21 10.9401 7.72 10.1301 7.57 9.88005C7.43 9.63005 7.55 9.50005 7.68 9.37005C7.79 9.26005 7.93 9.08005 8.05 8.94005C8.17 8.80005 8.22 8.69005 8.3 8.53005C8.38 8.36005 8.34 8.22005 8.28 8.10005C8.22 7.98005 7.72 6.76005 7.52 6.26005C7.32 5.78005 7.11 5.84005 6.96 5.83005H6.48C6.31 5.83005 6.05 5.89005 5.82 6.14005C5.6 6.39005 4.96 6.99005 4.96 8.21005C4.96 9.43005 5.85 10.6101 5.97 10.7701C6.09 10.9401 7.72 13.4401 10.2 14.5101C10.79 14.7701 11.25 14.9201 11.61 15.0301C12.2 15.2201 12.74 15.1901 13.17 15.1301C13.65 15.0601 14.64 14.5301 14.84 13.9501C15.05 13.3701 15.05 12.8801 14.98 12.7701C14.91 12.6601 14.76 12.6101 14.51 12.4901Z" fill="white"/>
</svg>
